<svg width="282" height="336" viewBox="0 0 282 336" fill="none" xmlns="http://www.w3.org/2000/svg">
<rect x="123" width="35" height="35" rx="5" fill="white"/>
<rect x="123" y="38" width="35" height="35" rx="5" fill="white"/>
<rect x="123" y="76" width="35" height="35" rx="5" fill="white"/>
<rect x="123" y="114" width="35" height="35" rx="5" fill="white"/>
<rect x="85" y="114" width="35" height="35" rx="5" fill="white"/>
<rect x="85" y="76" width="35" height="35" rx="5" fill="white"/>
<rect x="85" y="38" width="35" height="35" rx="5" fill="white"/>
<rect x="162" width="35" height="35" rx="5" fill="white"/>
<rect x="161" y="76" width="35" height="35" rx="5" fill="white"/>
<circle cx="102.5" cy="17.5" r="17.5" fill="white"/>
<path d="M9.90536 188.636V225H4.41886V188.636H9.90536ZM47.2456 188.636V225H42.2029L23.7193 198.331H23.3819V225H17.8954V188.636H22.9735L41.475 215.341H41.8123V188.636H47.2456ZM75.082 198.189C74.8926 196.508 74.1114 195.206 72.7383 194.283C71.3652 193.348 69.637 192.88 67.5536 192.88C66.0621 192.88 64.7719 193.117 63.6829 193.59C62.5939 194.052 61.7475 194.691 61.1438 195.508C60.552 196.313 60.256 197.23 60.256 198.26C60.256 199.124 60.4573 199.87 60.8597 200.497C61.274 201.125 61.8126 201.651 62.4755 202.077C63.1502 202.492 63.8723 202.841 64.6417 203.125C65.4111 203.397 66.1509 203.622 66.8612 203.8L70.4123 204.723C71.5723 205.007 72.762 205.392 73.9812 205.877C75.2004 206.362 76.3308 207.002 77.3725 207.795C78.4142 208.588 79.2546 209.57 79.8938 210.742C80.5449 211.914 80.8704 213.317 80.8704 214.95C80.8704 217.01 80.3377 218.839 79.2724 220.437C78.2189 222.035 76.686 223.295 74.6737 224.219C72.6732 225.142 70.2525 225.604 67.4116 225.604C64.689 225.604 62.3335 225.172 60.3448 224.308C58.3562 223.443 56.7996 222.218 55.6751 220.632C54.5505 219.034 53.9291 217.14 53.8107 214.95H59.315C59.4215 216.264 59.8477 217.359 60.5934 218.235C61.351 219.099 62.3157 219.744 63.4876 220.17C64.6713 220.585 65.9674 220.792 67.3761 220.792C68.9267 220.792 70.3058 220.549 71.5131 220.064C72.7324 219.567 73.6912 218.88 74.3896 218.004C75.088 217.116 75.4371 216.081 75.4371 214.897C75.4371 213.82 75.1294 212.938 74.5138 212.251C73.9102 211.565 73.0875 210.997 72.0458 210.547C71.016 210.097 69.85 209.701 68.5479 209.357L64.2511 208.185C61.3391 207.392 59.0309 206.226 57.3263 204.688C55.6336 203.149 54.7873 201.113 54.7873 198.58C54.7873 196.484 55.3555 194.656 56.4918 193.093C57.6282 191.531 59.167 190.317 61.1083 189.453C63.0496 188.577 65.2395 188.139 67.6779 188.139C70.14 188.139 72.3121 188.571 74.1942 189.435C76.0882 190.299 77.5797 191.489 78.6687 193.004C79.7577 194.508 80.3259 196.236 80.3732 198.189H75.082ZM85.6333 193.359V188.636H113.776V193.359H102.43V225H96.9615V193.359H85.6333ZM125.482 188.636V225H119.995V188.636H125.482ZM131.678 193.359V188.636H159.821V193.359H148.475V225H143.006V193.359H131.678ZM189.424 188.636H194.928V212.553C194.928 215.098 194.331 217.353 193.135 219.318C191.94 221.271 190.259 222.81 188.093 223.935C185.926 225.047 183.387 225.604 180.475 225.604C177.575 225.604 175.042 225.047 172.876 223.935C170.71 222.81 169.029 221.271 167.833 219.318C166.638 217.353 166.04 215.098 166.04 212.553V188.636H171.526V212.109C171.526 213.755 171.887 215.217 172.61 216.495C173.343 217.773 174.379 218.78 175.717 219.513C177.054 220.236 178.641 220.597 180.475 220.597C182.322 220.597 183.914 220.236 185.252 219.513C186.601 218.78 187.631 217.773 188.341 216.495C189.063 215.217 189.424 213.755 189.424 212.109V188.636ZM201.112 193.359V188.636H229.255V193.359H217.909V225H212.44V193.359H201.112ZM265.498 206.818C265.498 210.701 264.788 214.039 263.368 216.832C261.947 219.614 260 221.757 257.526 223.26C255.064 224.751 252.265 225.497 249.128 225.497C245.979 225.497 243.168 224.751 240.694 223.26C238.232 221.757 236.29 219.608 234.87 216.815C233.449 214.021 232.739 210.689 232.739 206.818C232.739 202.936 233.449 199.603 234.87 196.822C236.29 194.028 238.232 191.886 240.694 190.394C243.168 188.891 245.979 188.139 249.128 188.139C252.265 188.139 255.064 188.891 257.526 190.394C260 191.886 261.947 194.028 263.368 196.822C264.788 199.603 265.498 202.936 265.498 206.818ZM260.065 206.818C260.065 203.859 259.586 201.367 258.627 199.343C257.68 197.307 256.378 195.768 254.721 194.727C253.075 193.673 251.211 193.146 249.128 193.146C247.032 193.146 245.162 193.673 243.517 194.727C241.872 195.768 240.569 197.307 239.611 199.343C238.664 201.367 238.19 203.859 238.19 206.818C238.19 209.777 238.664 212.275 239.611 214.311C240.569 216.335 241.872 217.874 243.517 218.928C245.162 219.969 247.032 220.49 249.128 220.49C251.211 220.49 253.075 219.969 254.721 218.928C256.378 217.874 257.68 216.335 258.627 214.311C259.586 212.275 260.065 209.777 260.065 206.818ZM34.4482 286V249.636H56.9979V254.359H39.9347V265.439H55.3821V270.144H39.9347V286H34.4482ZM63.745 286V249.636H86.5433V254.359H69.2315V265.439H85.3537V270.144H69.2315V281.277H86.7564V286H63.745ZM105.644 286H93.872V249.636H106.017C109.58 249.636 112.64 250.364 115.197 251.82C117.753 253.264 119.712 255.342 121.074 258.053C122.447 260.751 123.133 263.989 123.133 267.765C123.133 271.553 122.441 274.808 121.056 277.531C119.683 280.253 117.694 282.348 115.09 283.816C112.486 285.272 109.337 286 105.644 286ZM99.3585 281.206H105.342C108.112 281.206 110.414 280.685 112.249 279.643C114.084 278.59 115.457 277.069 116.368 275.08C117.28 273.08 117.736 270.641 117.736 267.765C117.736 264.912 117.28 262.491 116.368 260.503C115.469 258.514 114.125 257.005 112.338 255.975C110.55 254.945 108.331 254.43 105.68 254.43H99.3585V281.206ZM129.956 286V249.636H152.754V254.359H135.442V265.439H151.565V270.144H135.442V281.277H152.967V286H129.956ZM160.083 286V249.636H173.045C175.862 249.636 178.2 250.122 180.058 251.092C181.928 252.063 183.325 253.406 184.248 255.123C185.172 256.827 185.633 258.798 185.633 261.036C185.633 263.261 185.166 265.22 184.231 266.913C183.307 268.594 181.911 269.902 180.04 270.837C178.182 271.772 175.844 272.239 173.027 272.239H163.208V267.516H172.53C174.305 267.516 175.749 267.262 176.862 266.753C177.987 266.244 178.809 265.504 179.33 264.533C179.851 263.563 180.111 262.397 180.111 261.036C180.111 259.662 179.845 258.473 179.312 257.467C178.791 256.46 177.969 255.691 176.844 255.158C175.732 254.614 174.27 254.342 172.459 254.342H165.569V286H160.083ZM178.034 269.594L187.018 286H180.768L171.961 269.594H178.034ZM195.381 286H189.557L202.643 249.636H208.982L222.068 286H216.244L205.964 256.241H205.68L195.381 286ZM196.358 271.76H215.25V276.376H196.358V271.76ZM227.319 286V249.636H232.806V281.277H249.283V286H227.319ZM78.3988 334V304.909H88.2141C90.1081 304.909 91.6848 305.241 92.9442 305.903C94.2132 306.566 95.1649 307.471 95.7994 308.616C96.4338 309.762 96.7511 311.064 96.7511 312.523C96.7511 313.735 96.5475 314.772 96.1403 315.634C95.7331 316.495 95.1791 317.191 94.4783 317.722C93.7776 318.252 92.9963 318.635 92.1346 318.872V319.099C93.0721 319.166 93.9812 319.497 94.8619 320.094C95.7425 320.681 96.467 321.505 97.0352 322.565C97.6033 323.626 97.8874 324.895 97.8874 326.372C97.8874 327.84 97.5607 329.152 96.9073 330.307C96.2539 331.453 95.2501 332.357 93.896 333.02C92.5513 333.673 90.8372 334 88.7539 334H78.3988ZM81.055 331.614H88.7539C90.9982 331.614 92.6554 331.116 93.7255 330.122C94.805 329.128 95.3448 327.878 95.3448 326.372C95.3448 325.264 95.0749 324.26 94.5352 323.361C94.0049 322.452 93.252 321.732 92.2766 321.202C91.3107 320.671 90.1744 320.406 88.8675 320.406H81.055V331.614ZM81.055 318.048H88.4556C89.6014 318.048 90.6052 317.812 91.467 317.338C92.3287 316.865 93.0011 316.211 93.484 315.378C93.967 314.545 94.2085 313.593 94.2085 312.523C94.2085 310.979 93.7066 309.724 92.7028 308.759C91.699 307.783 90.2028 307.295 88.2141 307.295H81.055V318.048ZM103.772 334V312.182H106.229V315.534H106.414C106.849 314.436 107.607 313.55 108.686 312.878C109.775 312.196 111.007 311.855 112.38 311.855C112.588 311.855 112.82 311.86 113.076 311.869C113.331 311.879 113.544 311.888 113.715 311.898V314.469C113.601 314.45 113.402 314.421 113.118 314.384C112.834 314.346 112.526 314.327 112.195 314.327C111.059 314.327 110.045 314.568 109.155 315.051C108.275 315.525 107.578 316.183 107.067 317.026C106.556 317.868 106.3 318.83 106.3 319.909V334H103.772ZM124.123 334.497C122.807 334.497 121.604 334.241 120.515 333.73C119.426 333.209 118.56 332.461 117.916 331.486C117.272 330.501 116.95 329.308 116.95 327.906C116.95 326.827 117.154 325.918 117.561 325.179C117.968 324.44 118.546 323.834 119.294 323.361C120.042 322.887 120.927 322.513 121.95 322.239C122.973 321.964 124.1 321.751 125.331 321.599C126.552 321.448 127.584 321.315 128.427 321.202C129.279 321.088 129.928 320.908 130.373 320.662C130.818 320.416 131.041 320.018 131.041 319.469V318.957C131.041 317.471 130.596 316.301 129.706 315.449C128.825 314.587 127.556 314.156 125.899 314.156C124.327 314.156 123.044 314.502 122.049 315.193C121.065 315.884 120.373 316.699 119.975 317.636L117.575 316.77C118.067 315.577 118.749 314.625 119.62 313.915C120.492 313.195 121.467 312.679 122.547 312.366C123.626 312.045 124.72 311.884 125.828 311.884C126.661 311.884 127.528 311.992 128.427 312.21C129.336 312.428 130.179 312.807 130.956 313.347C131.732 313.877 132.362 314.62 132.845 315.577C133.328 316.524 133.569 317.726 133.569 319.185V334H131.041V330.548H130.885C130.582 331.192 130.132 331.817 129.535 332.423C128.939 333.029 128.19 333.527 127.291 333.915C126.391 334.303 125.335 334.497 124.123 334.497ZM124.464 332.182C125.809 332.182 126.974 331.884 127.958 331.287C128.943 330.69 129.701 329.9 130.231 328.915C130.771 327.92 131.041 326.827 131.041 325.634V322.48C130.851 322.66 130.534 322.821 130.089 322.963C129.654 323.105 129.147 323.233 128.569 323.347C128.001 323.451 127.433 323.541 126.865 323.616C126.297 323.692 125.785 323.759 125.331 323.815C124.1 323.967 123.048 324.204 122.177 324.526C121.306 324.848 120.638 325.293 120.174 325.861C119.71 326.42 119.478 327.139 119.478 328.02C119.478 329.346 119.952 330.373 120.899 331.102C121.846 331.822 123.034 332.182 124.464 332.182ZM154.954 316.969L152.639 317.622C152.412 316.969 152.09 316.377 151.673 315.847C151.256 315.316 150.712 314.895 150.039 314.582C149.377 314.27 148.553 314.114 147.568 314.114C146.091 314.114 144.878 314.464 143.931 315.165C142.984 315.866 142.511 316.77 142.511 317.878C142.511 318.815 142.833 319.578 143.477 320.165C144.13 320.742 145.134 321.202 146.488 321.543L149.784 322.352C151.611 322.797 152.98 323.503 153.889 324.469C154.807 325.435 155.267 326.647 155.267 328.105C155.267 329.336 154.926 330.43 154.244 331.386C153.562 332.343 152.61 333.096 151.389 333.645C150.177 334.185 148.77 334.455 147.17 334.455C145.039 334.455 143.283 333.976 141.9 333.02C140.518 332.054 139.632 330.662 139.244 328.844L141.673 328.247C141.985 329.545 142.596 330.525 143.505 331.188C144.424 331.85 145.631 332.182 147.127 332.182C148.804 332.182 150.144 331.808 151.147 331.06C152.151 330.302 152.653 329.355 152.653 328.219C152.653 327.338 152.359 326.599 151.772 326.003C151.185 325.397 150.295 324.952 149.102 324.668L145.537 323.815C143.643 323.361 142.241 322.641 141.332 321.656C140.423 320.671 139.968 319.45 139.968 317.991C139.968 316.789 140.295 315.733 140.949 314.824C141.602 313.905 142.502 313.186 143.647 312.665C144.793 312.144 146.1 311.884 147.568 311.884C149.566 311.884 151.162 312.338 152.355 313.247C153.557 314.147 154.424 315.387 154.954 316.969ZM160.831 334V312.182H163.374V334H160.831ZM160.945 309.156L164.581 302.707H167.578L163.218 309.156H160.945ZM172.589 304.909V334H170.061V304.909H172.589ZM179.308 334V312.182H181.85V334H179.308ZM180.6 308.432C180.08 308.432 179.635 308.257 179.265 307.906C178.896 307.546 178.711 307.116 178.711 306.614C178.711 306.112 178.896 305.686 179.265 305.335C179.635 304.975 180.08 304.795 180.6 304.795C181.121 304.795 181.566 304.975 181.936 305.335C182.305 305.686 182.49 306.112 182.49 306.614C182.49 307.116 182.305 307.546 181.936 307.906C181.566 308.257 181.121 308.432 180.6 308.432ZM194.631 334.497C193.315 334.497 192.112 334.241 191.023 333.73C189.934 333.209 189.068 332.461 188.424 331.486C187.78 330.501 187.458 329.308 187.458 327.906C187.458 326.827 187.661 325.918 188.069 325.179C188.476 324.44 189.053 323.834 189.801 323.361C190.55 322.887 191.435 322.513 192.458 322.239C193.48 321.964 194.607 321.751 195.838 321.599C197.06 321.448 198.092 321.315 198.935 321.202C199.787 321.088 200.436 320.908 200.881 320.662C201.326 320.416 201.549 320.018 201.549 319.469V318.957C201.549 317.471 201.104 316.301 200.213 315.449C199.333 314.587 198.064 314.156 196.407 314.156C194.835 314.156 193.551 314.502 192.557 315.193C191.572 315.884 190.881 316.699 190.483 317.636L188.083 316.77C188.575 315.577 189.257 314.625 190.128 313.915C190.999 313.195 191.975 312.679 193.054 312.366C194.134 312.045 195.228 311.884 196.336 311.884C197.169 311.884 198.035 311.992 198.935 312.21C199.844 312.428 200.687 312.807 201.463 313.347C202.24 313.877 202.87 314.62 203.353 315.577C203.836 316.524 204.077 317.726 204.077 319.185V334H201.549V330.548H201.392C201.089 331.192 200.64 331.817 200.043 332.423C199.446 333.029 198.698 333.527 197.799 333.915C196.899 334.303 195.843 334.497 194.631 334.497ZM194.972 332.182C196.317 332.182 197.481 331.884 198.466 331.287C199.451 330.69 200.209 329.9 200.739 328.915C201.279 327.92 201.549 326.827 201.549 325.634V322.48C201.359 322.66 201.042 322.821 200.597 322.963C200.161 323.105 199.655 323.233 199.077 323.347C198.509 323.451 197.941 323.541 197.373 323.616C196.804 323.692 196.293 323.759 195.838 323.815C194.607 323.967 193.556 324.204 192.685 324.526C191.814 324.848 191.146 325.293 190.682 325.861C190.218 326.42 189.986 327.139 189.986 328.02C189.986 329.346 190.46 330.373 191.407 331.102C192.354 331.822 193.542 332.182 194.972 332.182Z" fill="white"/>
</svg>
